<svg xmlns="http://www.w3.org/2000/svg" width="665" height="635" viewBox="0 0 665 635" fill="none"><path d="M339.086 49.8745C335.524 48.5483 333.554 49.3819 331.281 52.2238C324.536 60.7494 317.678 69.2372 310.44 77.346C308.735 79.2785 305.477 80.6048 302.862 80.7943C292.214 81.5521 281.566 81.8551 270.919 82.0445C268.797 82.0824 266.145 81.249 264.667 79.847C255.876 71.5108 247.464 62.7578 238.635 54.4595C237.309 53.2091 234.126 52.489 232.573 53.209C221.47 58.097 210.596 63.5534 199.569 68.593C196.614 69.9571 195.855 71.5865 196.234 74.7315C197.674 86.3642 198.962 97.9971 199.947 109.668C200.137 111.941 199.303 114.859 197.863 116.602C191.005 125.014 183.92 133.274 176.607 141.307C174.939 143.164 172.097 144.869 169.71 144.983C158.646 145.475 147.543 145.551 136.441 145.475C132.879 145.438 130.909 146.195 129.696 149.947C126.096 161.125 122.194 172.189 118.064 183.178C116.738 186.777 117.647 188.748 120.451 190.946C128.976 197.69 137.237 204.814 145.8 211.483C148.718 213.756 149.589 216.03 149.551 219.781C149.513 230.05 149.931 240.318 150.878 250.511C151.219 254.263 150.385 256.536 147.808 259.037C139.51 267.032 131.553 275.33 123.293 283.326C120.83 285.713 120.45 287.645 122.08 290.79C127.385 301.248 132.538 311.82 137.312 322.506C138.942 326.105 140.988 326.598 144.474 326.181C155.88 324.779 167.323 323.491 178.805 322.619C181.154 322.43 184.185 323.718 185.966 325.31C193.961 332.661 201.766 340.239 209.345 348.045C211.201 349.977 212.869 353.008 212.945 355.585C213.248 367.294 213.096 379.002 212.831 390.711C212.755 394.273 213.665 396.243 217.34 397.456C228.48 401.093 239.545 404.996 250.571 409.088C253.83 410.301 255.686 409.77 257.808 407.004C265.008 397.493 272.321 388.096 279.975 378.964C281.605 376.994 284.939 375.781 287.592 375.478C297.974 374.341 308.47 374.114 318.852 372.75C323.058 372.22 325.748 372.977 328.59 375.933C336.168 383.739 344.088 391.241 351.742 399.009C354.243 401.548 356.251 402.192 359.662 400.449C370.12 395.106 380.691 389.991 391.377 385.216C394.938 383.625 395.507 381.579 395.09 378.093C393.688 366.877 392.703 355.623 391.339 344.407C390.884 340.807 391.87 338.534 394.56 335.919C402.328 328.303 409.413 320.043 417.029 312.313C418.621 310.683 421.387 309.357 423.623 309.319C435.521 309.092 447.456 309.168 459.354 309.395C462.802 309.471 464.47 308.334 465.569 305.038C469.244 293.897 473.11 282.795 477.24 271.806C478.566 268.245 477.77 266.388 474.814 264.152C465.493 257.104 456.285 249.829 447.343 242.289C445.486 240.735 444.16 237.704 443.933 235.203C442.834 224.177 442.038 213.15 441.545 202.086C441.432 199.812 442.266 196.857 443.781 195.265C452.762 185.716 462.082 176.471 471.631 166.771C465.606 154.456 459.772 142.179 453.52 130.129C452.762 128.613 449.693 127.363 447.798 127.553C436.127 128.538 424.495 130.053 412.824 131.076C410.702 131.266 407.935 130.584 406.268 129.296C397.591 122.399 389.065 115.352 380.805 108.001C378.986 106.371 377.471 103.378 377.357 100.99C376.826 89.926 376.713 78.8239 376.751 67.7216C376.751 64.2734 375.576 62.682 372.279 61.5831C361.139 57.8319 350.037 53.9668 339.086 49.8745ZM360.419 249.488C347.877 285.334 308.886 304.052 272.965 291.434C236.816 278.741 218.363 239.902 231.208 203.488C243.675 168.097 282.817 149.53 318.473 162.034C354.319 174.614 372.999 213.567 360.419 249.488Z" fill="white"/><path d="M354.773 379.873C353.371 379.873 352.044 379.191 350.605 377.827C342.306 369.87 334.955 363.011 328.059 356.911C326.809 355.812 324.724 355.016 323.095 355.016C313.357 355.395 303.771 356.039 294.45 356.949C292.366 357.138 290.054 358.237 289.03 359.45C288.614 359.942 287.932 359.98 287.439 359.601C286.947 359.184 286.909 358.502 287.288 358.01C288.917 356.039 292.024 354.903 294.222 354.675C303.581 353.766 313.206 353.122 322.83 352.743C325.066 352.515 327.831 353.652 329.574 355.206C336.509 361.344 343.898 368.202 352.197 376.198C353.902 377.865 354.963 378.016 356.933 376.918C360.192 375.137 362.843 373.735 365.534 372.295C366.064 371.992 366.785 372.219 367.05 372.788C367.353 373.318 367.125 374 366.595 374.303C363.904 375.743 361.252 377.145 358.031 378.888C356.819 379.532 355.758 379.873 354.773 379.873ZM297.518 288.744C291.38 288.744 285.128 287.796 278.989 285.864C262.999 280.862 250.002 270.101 242.385 255.55C234.883 241.152 233.444 224.593 238.408 208.868C240.492 202.199 242.955 196.97 246.138 192.347C246.479 191.854 247.198 191.703 247.691 192.044C248.221 192.385 248.335 193.105 247.994 193.635C244.925 198.031 242.575 203.108 240.529 209.512C235.754 224.669 237.119 240.621 244.356 254.451C251.669 268.434 264.174 278.816 279.633 283.628C291.152 287.228 303.013 287.342 313.963 283.893C314.532 283.704 315.176 284.045 315.365 284.613C315.554 285.22 315.214 285.826 314.645 286.015C309.151 287.872 303.353 288.744 297.518 288.744ZM424.077 216.674C423.471 216.674 422.978 216.219 422.94 215.612C422.637 209.967 422.486 206.253 422.334 200.835C422.296 198.789 423.319 196.212 424.797 194.507C428.018 190.907 431.162 187.573 433.928 184.655C434.345 184.2 435.066 184.162 435.52 184.617C435.975 185.034 436.013 185.754 435.558 186.209C432.792 189.126 429.685 192.423 426.464 196.022C425.327 197.273 424.531 199.281 424.569 200.759C424.721 206.14 424.835 209.853 425.176 215.461C425.214 216.067 424.721 216.598 424.115 216.636C424.115 216.673 424.077 216.674 424.077 216.674ZM354.735 210.535C348.672 191.817 334.994 177.834 316.162 171.393C315.555 171.203 315.251 170.559 315.441 169.953C315.63 169.347 316.313 169.081 316.881 169.233C336.471 175.902 350.643 190.452 355.834 209.057C355.986 209.664 355.645 210.27 355.038 210.459C354.925 210.535 354.849 210.535 354.735 210.535ZM144.663 165.823C143.754 165.596 143.413 164.951 143.564 164.383C145.042 159.419 146.823 158.093 150.385 158.055C159.631 158.017 170.544 157.866 181.684 157.221C183.654 157.108 186.003 155.478 187.368 154.038C190.134 151.083 192.823 147.976 195.4 144.944C198.697 141.117 202.107 137.177 205.707 133.501C208.094 131.038 208.776 129.068 208.283 125.961C207.525 121.111 206.844 116.26 206.2 111.372C205.593 106.788 204.949 102.165 204.229 97.5798C203.737 94.4348 204.191 91.934 207.98 90.0773C217.491 85.4166 226.699 80.6043 235.3 75.83C238.18 74.2385 240.302 74.3899 242.689 76.3603C243.182 76.7771 243.257 77.4593 242.841 77.9519C242.424 78.4445 241.742 78.4823 241.249 78.1034C239.81 76.9287 238.673 76.5498 236.399 77.8002C227.76 82.6124 218.514 87.4248 208.966 92.0855C206.578 93.2601 206.009 94.3968 206.426 97.2387C207.146 101.824 207.79 106.446 208.397 111.069C209.041 115.919 209.723 120.77 210.481 125.582C211.087 129.409 210.178 132.061 207.299 135.055C203.775 138.692 200.364 142.595 197.105 146.422C194.491 149.454 191.763 152.599 188.997 155.592C187.405 157.297 184.601 159.305 181.797 159.495C170.619 160.139 159.669 160.291 150.385 160.366C147.846 160.366 146.899 161.086 146.179 163.549C145.573 165.482 145.118 165.823 144.663 165.823ZM439.272 151.613C438.287 151.007 430.822 136.457 430.822 136.457L422.447 137.593C413.694 138.806 405.396 139.943 396.946 140.928C394.445 141.231 391.68 139.943 390.126 138.654C382.321 132.213 374.894 125.809 368.073 119.519C366.141 117.738 364.663 114.896 364.549 112.623C363.981 102.922 363.678 92.8434 363.602 81.779C363.602 78.8992 362.882 77.876 360.305 77.1561C351.022 74.4658 341.397 71.3965 330.825 67.8726C328.438 67.0769 327.263 67.4937 325.747 69.5398C318.548 79.5432 312.599 87.5385 306.991 94.7C305.627 96.443 303.051 97.8449 300.701 98.186C296.495 98.7543 291.759 99.247 287.212 99.7017C285.128 99.9291 283.044 100.156 280.998 100.346C280.316 100.308 279.823 99.9669 279.747 99.3606C279.671 98.7543 280.126 98.1861 280.732 98.1103C282.779 97.883 284.9 97.6555 286.946 97.466C291.493 97.0113 296.192 96.5189 300.36 95.9505C302.141 95.7231 304.187 94.5864 305.172 93.3359C310.78 86.1744 316.729 78.1793 323.891 68.2516C325.975 65.3719 328.172 64.6139 331.507 65.7507C342.079 69.2746 351.665 72.3059 360.911 74.9962C364.511 76.0193 365.837 77.8762 365.837 81.779C365.875 92.8055 366.216 102.847 366.784 112.509C366.898 114.214 368.073 116.488 369.588 117.852C376.371 124.104 383.76 130.508 391.566 136.911C393.006 138.086 395.166 138.806 396.681 138.692C405.093 137.745 413.392 136.57 422.145 135.358L431.314 134.107C432.489 134.714 440.295 149.946 440.295 149.946C440.598 150.515 440.37 151.197 439.802 151.462C439.65 151.575 439.461 151.613 439.272 151.613Z" fill="#002C39"/><path d="M665 53.8442H362.169V627.942H665V53.8442Z" fill="#174E64"/><path d="M642.302 79.0415H379.069V568.641H642.302V79.0415Z" fill="white"/><path d="M620.742 312.569H389.83V393.354H620.742V312.569Z" fill="#20D0CB"/><path d="M195.256 194.347C195.256 194.347 197.378 214.619 158.236 233.11C157.175 233.64 153.613 229.017 146.149 230.874C138.684 232.731 136.828 244.174 139.025 250.578C141.223 256.982 147.93 266.644 159.298 261.339C159.298 261.339 164.641 278.656 163.958 291.766C163.276 304.877 162.177 311.091 162.177 311.091L182.26 317.95L188.248 295.555C188.248 295.555 211.664 289.266 213.937 273.73C216.211 258.194 214.202 256.83 214.202 256.83C214.202 256.83 226.745 247.092 227.843 245.349C228.904 243.606 229.17 242.166 227.843 240.991C226.479 239.817 207.534 225.569 207.534 225.569C207.534 225.569 202.115 199.31 195.256 194.347Z" fill="white"/><path d="M398.507 408.701C398.507 408.701 421.128 404.343 425.903 401.956C430.677 399.569 430.563 400.705 437.99 390.02C445.758 378.804 461.559 372.173 467.584 368.649C473.608 365.163 491.408 358.077 491.408 358.077C491.408 358.077 498.233 364.86 494.178 368.649C490.806 371.832 477.133 375.545 477.171 379.069C477.209 382.555 486.719 398.432 484.711 404.987C482.703 411.542 478.687 423.175 455.156 421.849L409.838 442.462L398.507 408.701Z" fill="white"/><path d="M76.6552 458.539C76.6552 458.539 81.1278 505.297 78.968 537.239C76.8081 569.182 72.8288 609.726 64 633.485H235.12C235.12 633.485 226.366 554.329 225.267 530.95C224.169 507.532 223.638 482.069 225.835 469.451C225.835 469.451 271.798 486.162 313.062 480.554C354.326 474.946 412.073 452.021 412.073 452.021L395.856 404.618C395.856 404.618 355.766 416.024 300.596 402.496C245.425 388.969 230.459 359.527 220.91 354.564C211.362 349.6 197.493 328.759 155.395 327.698C155.395 327.698 143.839 343.007 124.59 355.208C105.341 367.447 101.779 395.562 99.0887 405.869C96.4363 416.251 101.209 464.488 76.6552 458.539Z" fill="#7ECB00"/><path d="M601.532 470.767H556.517V515.782H601.532V470.767Z" fill="#7ECB00"/><path d="M517.602 586.564C517.602 594.484 511.197 600.887 503.278 600.887C495.358 600.887 488.955 594.484 488.955 586.564C488.955 578.645 495.358 572.241 503.278 572.241C511.197 572.241 517.602 578.645 517.602 586.564Z" fill="white"/><path d="M157.212 233.64C157.212 233.64 164.26 226.555 173.24 218.256C182.258 209.958 198.288 188.208 186.844 177.939C175.363 167.671 154.296 167.292 132.281 171.536C110.758 175.704 94.6164 183.396 87.8338 189.648C81.0512 195.9 80.3683 218.673 82.2629 229.245C84.1575 239.817 89.9923 267.099 91.2048 283.809C92.4174 300.519 88.553 322.913 73.8131 350.953C59.0732 378.993 57.6715 388.39 51.3436 401.652C45.0157 414.914 36.7932 444.28 52.3288 452.351C75.5186 464.401 86.3939 456.709 87.758 446.289C89.0842 435.869 90.7137 394.756 98.3299 381.911C105.946 369.065 105.681 362.624 130.159 346.634C154.637 330.643 155.66 305.483 155.736 299.875C155.811 294.267 157.516 275.018 152.894 262.817C152.894 262.817 141.071 263.537 138.153 245.273C138.153 245.273 137.283 233.678 147.589 230.609C154.599 228.525 157.212 233.64 157.212 233.64Z" fill="#A0B3BD"/><path d="M451.519 470.767H406.502V515.782H451.519V470.767Z" fill="#D0FF84"/><path d="M512.447 451.518H467.432V496.533H512.447V451.518Z" fill="#A1EFED"/><path d="M152.894 263.954C150.848 263.954 148.914 263.499 147.095 262.628C141.222 259.786 138.23 253.344 137.434 248.684C136.032 240.537 138.04 231.178 147.854 229.283C155.584 227.805 160.055 235.346 160.245 235.649C160.548 236.179 160.359 236.861 159.828 237.203C159.298 237.506 158.615 237.316 158.274 236.786C158.123 236.521 154.372 230.306 148.233 231.519C137.889 233.527 138.987 244.857 139.593 248.305C140.351 252.776 143.268 258.308 148.043 260.62C151.718 262.4 155.924 262.022 160.509 259.521C161.04 259.218 161.721 259.407 162.025 259.975C162.328 260.506 162.102 261.226 161.571 261.491C158.616 263.12 155.66 263.954 152.894 263.954Z" fill="#002C39"/><path d="M150.127 256.072C148.839 255.125 148.952 254.405 149.444 254.026L157.439 247.963L145.807 238.756C145.314 238.377 145.239 237.657 145.618 237.164C145.997 236.672 146.717 236.596 147.209 236.975L159.977 247.092C159.939 248.873 150.771 255.807 150.771 255.807C150.581 255.997 150.354 256.072 150.127 256.072Z" fill="#002C39"/><path d="M193.209 233.981C194.081 233.943 194.763 233.185 194.687 232.314L194.46 227.88C194.422 227.009 193.664 226.365 192.793 226.402C191.921 226.44 191.239 227.198 191.315 228.07L191.542 232.503C191.58 233.375 192.338 234.057 193.209 233.981Z" fill="#002C39"/><path d="M182.827 319.313C181.993 319.162 181.576 318.556 181.728 317.949L186.54 294.608C186.654 294.002 187.261 293.585 187.867 293.736C188.473 293.85 188.89 294.456 188.738 295.062L183.926 318.404C183.812 318.934 183.357 319.313 182.827 319.313Z" fill="#174E64"/><path d="M182.222 296.692C181.653 296.692 181.161 296.275 181.086 295.707C181.01 295.1 181.464 294.532 182.07 294.456C195.256 292.789 204.503 288.09 209.58 280.436C216.552 269.902 213.104 257.284 213.066 257.171C221.44 250.464 228.185 244.363 227.882 242.848C227.352 241.635 222.274 238.187 218.182 235.383C210.907 230.419 206.435 227.274 205.943 225.038C201.093 202.266 194.727 194.611 194.651 194.536C194.234 194.081 194.309 193.361 194.764 192.944C195.257 192.527 195.938 192.603 196.355 193.058C196.62 193.361 203.139 201.129 208.141 224.584C208.444 226.024 215.075 230.533 219.433 233.526C225.457 237.618 229.171 240.233 229.929 241.976C231.444 245.462 221.782 252.927 215.416 257.36C216.098 260.429 218.029 271.759 211.436 281.725C205.98 289.947 196.205 294.987 182.336 296.73C182.336 296.692 182.297 296.692 182.222 296.692Z" fill="#002C39"/><path d="M193.779 337.653C192.794 337.047 183.244 319.503 183.244 319.503L161.799 312.19C161.193 312.001 160.888 311.356 161.077 310.75C161.267 310.182 161.912 309.841 162.519 310.03L184.382 317.495C185.026 318.025 194.764 335.986 194.764 335.986C195.067 336.517 194.839 337.236 194.309 337.502C194.119 337.615 193.931 337.653 193.779 337.653Z" fill="#174E64"/><path d="M236.18 634.99C235.612 634.99 235.118 634.573 235.043 634.004C232.466 612.861 219.963 505.514 225.533 469.554C225.608 468.948 226.176 468.493 226.82 468.607C227.427 468.683 227.843 469.289 227.768 469.895C222.235 505.589 234.703 612.633 237.279 633.739C237.355 634.345 236.9 634.914 236.293 634.99C236.255 634.99 236.218 634.99 236.18 634.99Z" fill="#002C39"/><path d="M65.0596 634.99C64.1124 634.724 63.81 634.08 63.9995 633.512C72.1462 608.996 84.5369 553.788 76.3902 459.172C76.3523 458.566 76.8071 457.998 77.4133 457.96C78.0954 457.884 78.5873 458.376 78.6252 458.983C86.8477 554.015 74.3063 609.564 66.1217 634.232C65.9701 634.687 65.5144 634.99 65.0596 634.99Z" fill="#002C39"/><path d="M293.963 482.855C258.724 482.855 230.835 474.026 210.259 463.719C166.873 441.969 145.806 409.004 145.579 408.663C145.238 408.132 145.389 407.45 145.919 407.109C146.45 406.768 147.132 406.958 147.473 407.45C147.663 407.791 168.465 440.264 211.358 461.749C250.804 481.491 317.532 495.662 411.731 451.367L396.839 407.261C386.078 409.117 289.87 423.819 233.222 366.868C197.945 331.401 170.587 329.999 157.438 329.317L155.62 329.204C155.013 329.166 154.522 328.635 154.56 327.991C154.597 327.385 155.166 326.93 155.734 326.93L157.553 327.044C170.967 327.726 198.931 329.166 234.852 365.239C293.774 424.463 396.384 405.025 397.407 404.836C397.975 404.76 398.505 405.063 398.695 405.593L414.231 451.556C414.42 452.087 414.155 452.693 413.663 452.958C367.17 474.935 327.308 482.855 293.963 482.855Z" fill="#002C39"/><path d="M186.049 225.266C184.799 224.47 184.799 223.75 185.253 223.334C185.443 223.144 189.61 219.09 195.255 217.271C195.862 217.044 196.469 217.423 196.697 217.991C196.886 218.597 196.544 219.204 195.975 219.431C190.86 221.098 186.919 224.925 186.882 224.963C186.616 225.152 186.314 225.266 186.049 225.266Z" fill="#002C39"/><path d="M409.798 443.22C408.51 442.007 408.775 441.325 409.343 441.06L454.132 420.712C458.831 421.356 472.244 421.091 479.633 413.74C487.25 406.199 481.793 393.885 478.155 385.738C476.033 380.926 474.858 378.311 476.601 377.136C479.746 375.052 483.12 373.537 486.416 372.097C487.894 371.453 489.371 370.809 490.849 370.089C491.455 369.786 492.024 369.52 492.44 369.141C492.819 368.762 493.198 368.27 493.539 367.474C494.183 366.072 494.411 364.67 494.222 363.458C493.995 361.98 493.085 360.729 491.948 360.275C491.152 359.971 490.205 359.933 488.955 360.199C485.09 361.032 481.68 362.7 478.042 364.481L476.488 365.238C473.267 366.792 470.084 368.497 467.167 370.126C465.462 371.074 463.794 372.059 462.127 373.044C458.717 375.052 455.156 377.136 451.518 378.766C446.289 381.077 438.142 390.057 434.731 397.181C431.094 404.797 402.031 409.344 398.734 409.837C398.09 409.913 397.56 409.496 397.446 408.89C397.371 408.283 397.787 407.715 398.394 407.601C407.033 406.313 430.033 401.766 432.685 396.196C436.36 388.504 444.886 379.221 450.608 376.682C454.17 375.09 457.656 373.044 460.991 371.074C462.696 370.088 464.4 369.065 466.105 368.118C469.06 366.489 472.244 364.746 475.541 363.192L477.095 362.434C480.695 360.654 484.408 358.835 488.538 357.963C490.243 357.622 491.644 357.66 492.857 358.153C494.751 358.91 496.153 360.805 496.494 363.079C496.759 364.746 496.457 366.565 495.661 368.383C495.207 369.444 494.676 370.202 494.031 370.809C493.387 371.377 492.667 371.756 491.909 372.135C490.432 372.855 488.916 373.537 487.4 374.181C484.104 375.621 480.997 376.985 478.079 378.917C478.041 379.789 479.292 382.593 480.277 384.828C483.915 393.013 489.977 406.73 481.262 415.369C472.887 423.667 458.641 423.478 454.776 422.91L410.29 443.144C410.101 443.22 409.95 443.22 409.798 443.22Z" fill="#174E64"/><path d="M78.6253 460.195C77.9053 460.195 77.2231 460.157 76.579 460.157C58.8077 459.361 47.7816 454.322 43.765 445.266C29.2904 412.451 48.8801 382.555 66.1587 356.182C73.8886 344.398 81.1636 333.258 84.8012 322.837C94.312 295.48 88.3252 265.507 83.9297 243.644C82.9067 238.604 81.9605 233.83 81.2784 229.548C80.028 221.742 78.7389 206.699 84.2332 193.665C90.3337 179.152 151.377 160.13 183.623 170.626C199.727 175.893 206.169 187.602 202.153 204.577C202.001 205.184 201.394 205.563 200.787 205.411C200.181 205.259 199.803 204.653 199.955 204.047C203.706 188.208 197.946 177.674 182.903 172.786C151.491 162.555 92.1527 180.592 86.2795 194.536C81.0125 207.04 82.2621 221.629 83.4746 229.207C84.1566 233.451 85.1047 238.187 86.1277 243.227C90.5611 265.356 96.6236 295.669 86.9233 323.633C83.2099 334.281 75.859 345.535 68.0533 357.471C51.0778 383.351 31.8663 412.717 45.8483 444.432C49.486 452.655 59.8679 457.239 76.6918 457.997C79.9884 458.149 84.764 458.073 88.4016 455.724C94.6917 451.707 95.677 443.068 96.1317 434.58C97.0032 418.097 98.8593 398.848 105.945 380.963C108.408 374.711 112.121 366.678 118.828 360.161C123.564 355.576 129.059 351.749 134.364 348.036C141.071 343.375 148.119 337.918 153.045 330.302C157.289 323.785 160.244 315.979 161.684 307.757C163.957 294.608 162.821 279.527 158.198 261.756C158.046 261.15 158.425 260.544 158.993 260.392C159.6 260.24 160.205 260.581 160.357 261.188C165.056 279.3 166.231 294.684 163.882 308.173C162.404 316.699 159.296 324.77 154.901 331.553C149.748 339.472 142.473 345.118 136.07 349.589C130.386 353.53 125.005 357.319 120.382 361.752C115.305 366.678 111.629 372.665 107.991 381.759C101.019 399.341 99.2012 418.4 98.3297 434.694C97.875 443.371 96.7759 452.996 89.5765 457.618C86.2041 459.74 81.9976 460.195 78.6253 460.195Z" fill="#002C39"/><path d="M157.213 234.739C155.924 233.564 156.152 232.882 156.72 232.617C196.507 212.989 194.46 194.157 194.46 193.967C194.385 193.361 194.801 192.793 195.408 192.679C196.09 192.603 196.584 193.02 196.697 193.665C196.811 194.498 198.97 214.315 157.744 234.663C157.554 234.739 157.364 234.739 157.213 234.739Z" fill="#002C39"/><path d="M520.708 610.587H350.271C349.627 610.587 349.135 610.094 349.135 609.45V481.869C349.135 481.263 349.627 480.732 350.271 480.732C350.877 480.732 351.407 481.225 351.407 481.869V608.314H520.708C521.314 608.314 521.844 608.806 521.844 609.45C521.806 610.094 521.314 610.587 520.708 610.587Z" fill="#174E64"/><path d="M650.411 411.352C649.805 411.352 649.275 410.86 649.275 410.216V154.371C649.275 153.765 649.767 153.234 650.411 153.234C651.056 153.234 651.549 153.727 651.549 154.371V410.216C651.549 410.86 651.018 411.352 650.411 411.352Z" fill="#174E64"/><path d="M373.574 401.917C372.93 401.917 372.438 401.425 372.438 400.781V71.7666C372.438 71.1603 372.93 70.6299 373.574 70.6299H543.14C543.746 70.6299 544.278 71.1224 544.278 71.7666C544.278 72.3729 543.746 72.9035 543.14 72.9035H374.673V400.781C374.673 401.425 374.181 401.917 373.574 401.917Z" fill="#174E64"/><path d="M520.708 558.866H373.574C372.93 558.866 372.438 558.373 372.438 557.729V475.163C372.438 474.557 372.93 474.026 373.574 474.026C374.218 474.026 374.712 474.519 374.712 475.163V556.63H520.708C521.314 556.63 521.844 557.123 521.844 557.767C521.806 558.373 521.314 558.866 520.708 558.866Z" fill="#174E64"/><path d="M615.892 384.752H485.394C484.787 384.752 484.256 384.26 484.256 383.616C484.256 383.009 484.787 382.479 485.394 382.479H614.755V302.3H385.889V382.479H435.566C436.173 382.479 436.702 382.972 436.702 383.616C436.702 384.222 436.21 384.752 435.566 384.752H384.753C384.147 384.752 383.615 384.26 383.615 383.616V301.163C383.615 300.557 384.147 300.026 384.753 300.026H615.854C616.46 300.026 616.991 300.519 616.991 301.163V383.616C617.029 384.26 616.499 384.752 615.892 384.752Z" fill="#174E64"/><path d="M543.139 65.4388H458.035C457.428 65.4388 456.899 64.9463 456.899 64.3021V57.4817C456.899 56.8754 457.391 56.3447 458.035 56.3447H543.139C543.746 56.3447 544.277 56.8375 544.277 57.4817C544.277 58.0879 543.746 58.6184 543.139 58.6184H459.134V63.1654H543.139C543.746 63.1654 544.277 63.658 544.277 64.3021C544.277 64.9463 543.746 65.4388 543.139 65.4388Z" fill="#174E64"/><path d="M500.322 597.666C491.797 597.666 484.862 590.732 484.862 582.206C484.862 573.68 491.797 566.746 500.322 566.746C508.848 566.746 515.783 573.68 515.783 582.206C515.783 590.732 508.848 597.666 500.322 597.666ZM500.322 569.02C493.047 569.02 487.136 574.931 487.136 582.206C487.136 589.481 493.047 595.392 500.322 595.392C507.598 595.392 513.509 589.481 513.509 582.206C513.509 574.931 507.598 569.02 500.322 569.02Z" fill="#174E64"/><path d="M522.83 509.189H477.815C477.171 509.189 476.677 508.696 476.677 508.052V463.037C476.677 462.431 477.171 461.9 477.815 461.9H522.83C523.436 461.9 523.966 462.393 523.966 463.037V508.052C523.966 508.696 523.474 509.189 522.83 509.189ZM478.951 506.916H521.694V464.136H478.951V506.916Z" fill="#174E64"/><path d="M446.706 509.189H401.689C401.083 509.189 400.553 508.696 400.553 508.052V463.037C400.553 462.431 401.083 461.9 401.689 461.9H446.706C447.313 461.9 447.842 462.393 447.842 463.037V508.052C447.842 508.696 447.35 509.189 446.706 509.189ZM402.827 506.916H445.568V464.136H402.827V506.916Z" fill="#174E64"/><path d="M553.978 479.596C553.372 479.596 552.84 479.103 552.84 478.459V463.037C552.84 462.431 553.334 461.9 553.978 461.9H579.024C579.63 461.9 580.16 462.393 580.16 463.037C580.16 463.643 579.668 464.174 579.024 464.174H555.114V478.459C555.114 479.103 554.584 479.596 553.978 479.596Z" fill="#174E64"/><path d="M331.477 634.99H1.13694C0.530669 634.99 0 634.497 0 633.853C0 633.209 0.492778 632.716 1.13694 632.716H331.477C332.083 632.716 332.613 633.209 332.613 633.853C332.613 634.497 332.083 634.99 331.477 634.99Z" fill="#174E64"/><path d="M211.701 276.988C205.449 276.988 202.266 273.085 201.129 271.304C199.31 268.462 198.817 265.09 199.991 263.157C200.673 261.983 201.621 261.301 202.757 261.036C204.955 260.543 207.38 261.869 209.692 263.423C211.852 264.863 214.39 264.673 214.428 264.673C215.11 264.635 215.604 265.09 215.642 265.696C215.68 266.302 215.225 266.871 214.619 266.909C214.505 266.947 211.284 267.174 208.48 265.279C207.305 264.484 204.88 262.892 203.288 263.233C202.758 263.347 202.341 263.688 201.962 264.332C201.356 265.355 201.621 267.818 203.061 270.092C204.084 271.683 207.078 275.283 213.141 274.677C213.747 274.601 214.316 275.055 214.391 275.7C214.467 276.306 214.012 276.874 213.368 276.95C212.762 276.988 212.232 276.988 211.701 276.988Z" fill="#002C39"/><path d="M543.747 164.829C543.747 178.431 532.72 189.458 519.117 189.458C505.514 189.458 494.487 178.431 494.487 164.829C494.487 151.226 505.514 140.199 519.117 140.199C532.72 140.199 543.747 151.226 543.747 164.829Z" fill="#7ECB00" stroke="#7ECB00" stroke-width="2.65242" stroke-linecap="round" stroke-linejoin="round"/><path d="M469.858 255.137C469.858 242.073 475.047 229.544 484.285 220.306C493.523 211.068 506.053 205.878 519.117 205.878C532.181 205.878 544.711 211.068 553.948 220.306C563.186 229.544 568.376 242.073 568.376 255.137H469.858Z" fill="#7ECB00" stroke="#7ECB00" stroke-width="2.65242" stroke-linecap="round" stroke-linejoin="round"/><path d="M507.749 182.066C521.352 182.066 532.379 171.039 532.379 157.437C532.379 143.834 521.352 132.807 507.749 132.807C494.147 132.807 483.12 143.834 483.12 157.437C483.12 171.039 494.147 182.066 507.749 182.066Z" stroke="#002C39" stroke-width="2.65242" stroke-linecap="round" stroke-linejoin="round"/><path d="M458.49 247.745C458.49 234.681 463.68 222.151 472.918 212.914C482.156 203.676 494.685 198.486 507.749 198.486C520.814 198.486 533.343 203.676 542.581 212.914C551.819 222.151 557.009 234.681 557.009 247.745H458.49Z" stroke="#002C39" stroke-width="2.65242" stroke-linecap="round" stroke-linejoin="round"/><path d="M639.726 105.604C637.756 119.851 626.351 130.385 609.678 133.417C607.86 133.758 606.117 134.175 603.919 134.629C603.919 139.82 603.919 144.898 603.919 150.241C599.069 150.241 594.673 150.241 589.672 150.241C589.672 145.277 589.672 140.237 589.672 134.553C569.172 132.28 557.539 121.595 553.219 103.179C560.76 101.36 567.922 99.6172 575.538 97.7984C576.106 99.314 576.712 100.678 577.167 102.08C581.032 113.258 593.536 118.677 605.32 114.243C610.739 112.197 613.278 108.143 613.657 103.027C613.998 98.3667 611.838 94.5778 607.177 92.5695C601.114 89.9929 594.863 87.8329 588.648 85.5215C585.39 84.3089 582.017 83.2481 578.834 81.8461C562.768 74.9877 555.721 63.4685 557.729 47.6677C559.699 32.2836 569.437 22.7727 586.716 19.4003C587.436 19.2867 588.08 19.0214 589.216 18.7183C589.216 14.8155 589.216 10.9506 589.216 6.74463C594.256 6.74463 603.275 6.74463 603.275 6.74463L603.578 18.5668C603.578 18.5668 606.684 18.908 614.793 21.7498C626.275 25.7664 632.755 33.7614 636.392 44.8258C629.799 47.3266 623.243 49.8653 616.65 52.3662C614.187 48.7286 612.179 45.0531 609.451 41.946C605.169 37.0579 599.183 35.7698 592.817 37.3612C587.815 38.6116 584.594 41.8703 583.76 46.7583C582.889 51.8358 584.518 55.9659 589.747 58.2773C594.939 60.5508 600.319 62.4834 605.586 64.5295C610.019 66.2725 614.566 67.7882 618.924 69.7207C635.596 77.0717 642.114 88.477 639.726 105.604Z" fill="#7ECB00"/><path d="M609.564 145.732H595.317C594.71 145.732 594.18 145.239 594.18 144.595V129.931C574.135 127.43 562.237 116.896 557.728 97.8365C557.577 97.2302 557.955 96.624 558.562 96.4725L580.88 91.0919C581.448 90.9403 581.979 91.2434 582.206 91.7739C583.153 94.199 583.532 95.1463 583.873 96.0936C586.601 103.937 593.914 109.053 602.591 109.053C605.282 109.053 607.972 108.56 610.549 107.575C615.21 105.794 617.786 102.383 618.165 97.3439C618.506 92.9863 616.498 89.7657 612.368 88.0227C608.048 86.2039 603.539 84.5365 599.182 82.9451C597.401 82.3009 595.658 81.6567 593.877 80.9746C592.74 80.5578 591.603 80.1412 590.466 79.7623C588.344 79.0045 586.109 78.2466 584.025 77.3372C567.466 70.2514 560.153 58.3533 562.237 41.9462C564.245 26.0317 574.324 16.1799 592.133 12.6939C593.725 12.2771 593.725 1.13694 593.725 1.13694C593.725 0.530669 594.217 0 594.861 0H608.92C609.526 0 610.018 0.492741 610.056 1.09901L610.359 12.0118C611.837 12.315 615.134 13.0728 620.818 15.0811C631.958 18.9839 639.044 26.5243 643.136 38.877C643.326 39.4453 643.022 40.0895 642.454 40.2789L622.674 47.8194C620.552 46.2279 619.833 45.0913 619.075 43.9166C617.521 41.4537 616.043 39.1423 614.225 37.0582C610.473 32.7386 605.016 31.2608 598.689 32.8144C594.066 33.989 591.224 36.9067 590.466 41.34C589.595 46.3038 591.337 49.6761 595.809 51.6085C599.522 53.2379 603.425 54.7157 607.176 56.1556C608.654 56.724 610.132 57.2924 611.61 57.8608C613.088 58.4291 614.603 58.9976 616.119 59.5659C619.037 60.6648 622.106 61.8015 624.986 63.0519C642.075 70.5924 648.895 82.3768 646.432 100.11C644.386 114.774 632.527 125.801 615.475 128.908C614.263 129.135 613.05 129.4 611.724 129.666C610.625 129.893 610.625 144.595 610.625 144.595C610.701 145.201 610.208 145.732 609.564 145.732ZM596.453 143.458H608.427V128.984C609.298 127.885 611.307 127.468 611.307 127.468C612.671 127.165 613.883 126.9 615.134 126.672C631.427 123.717 642.302 113.675 644.234 99.8069C646.546 83.2483 640.143 72.2217 624.115 65.1359C621.273 63.8855 618.279 62.7488 615.361 61.6879C613.846 61.1195 612.33 60.5511 610.815 59.9827C609.337 59.4143 607.858 58.8459 606.381 58.2775C602.591 56.8376 598.689 55.36 594.899 53.6928C589.519 51.3435 587.207 46.9479 588.23 40.961C589.14 35.694 592.664 32.0186 598.121 30.6545C605.206 28.8736 611.61 30.6545 615.892 35.5804C617.824 37.7781 619.34 40.1653 620.931 42.7041C621.5 43.5756 622.068 44.485 622.636 45.3565L640.521 38.5361C636.618 27.5096 630.063 20.7269 619.946 17.203C612.14 14.4748 609.034 14.0958 608.996 14.0958C608.428 14.0201 608.011 13.5654 608.011 12.9971L607.707 2.27364H595.847V13.1486C593.422 14.7021 592.929 14.8157 592.437 14.9294C575.689 18.188 566.254 27.3958 564.359 42.2494C562.427 57.5198 569.285 68.6221 584.783 75.2532C586.829 76.1247 588.988 76.8825 591.11 77.6404C592.247 78.0572 593.422 78.4738 594.559 78.8906C596.302 79.5348 598.082 80.179 599.825 80.8611C604.221 82.4525 608.73 84.1197 613.125 85.9764C618.089 88.0604 620.704 92.3045 620.325 97.5335C619.871 103.407 616.763 107.613 611.269 109.697C608.427 110.758 605.471 111.326 602.516 111.326C592.891 111.326 584.707 105.642 581.675 96.8513C581.372 95.9419 580.994 95.0326 580.615 94.0853C580.388 93.5548 560.115 98.4429 560.115 98.4429C564.624 116.1 576.143 125.725 595.317 127.847C595.885 127.923 596.34 128.377 596.34 128.984V143.458H596.453Z" fill="#162737"/></svg>